<svg width="37" height="38" viewBox="0 0 37 38" fill="none" xmlns="http://www.w3.org/2000/svg">
<g clip-path="url(#clip0_550_17502)">
<path d="M18.4998 35.9584C27.8659 35.9584 35.4582 28.3662 35.4582 19.0001C35.4582 9.63399 27.8659 2.04175 18.4998 2.04175C9.13375 2.04175 1.5415 9.63399 1.5415 19.0001C1.5415 28.3662 9.13375 35.9584 18.4998 35.9584Z" fill="#5847FF" stroke="#5847FF" stroke-width="4" stroke-linecap="round" stroke-linejoin="round"/>
<path d="M20.4732 27.633C15.6204 28.9333 12.6042 26.5008 11.2537 24.566C10.877 24.0264 10.217 23.7088 9.58136 23.8791C8.82207 24.0826 8.39715 24.8916 8.80497 25.5636C10.3921 28.1789 14.327 31.45 21.0293 29.7081C27.761 27.9585 29.4629 23.1013 29.4729 20.0098C29.4754 19.2314 28.7079 18.7542 27.956 18.9556C27.3125 19.1281 26.8972 19.745 26.8539 20.4099C26.7129 22.5778 25.5883 26.2624 20.4732 27.633Z" fill="white"/>
<path fill-rule="evenodd" clip-rule="evenodd" d="M19.8734 10.6564C19.5183 11.167 19.3094 11.6931 19.2468 12.2346C19.1767 12.789 19.2128 13.3315 19.3549 13.8619L19.3396 13.866L20.0488 16.5129L20.0484 16.513C20.3309 17.7491 20.2917 19.0715 18.7617 19.4815C17.3541 19.8586 16.5038 18.6434 16.2087 17.5418L16.2086 17.5418L14.8352 12.4164C14.7485 12.1335 14.5785 11.9276 14.3253 11.7987C14.0694 11.6595 13.7986 11.6282 13.513 11.7048L8.93839 12.9305C8.049 13.2016 7.4281 13.5976 7.0757 14.1184C6.72056 14.6289 6.50795 15.1615 6.43787 15.7159C6.36506 16.2602 6.39698 16.7873 6.53363 17.2973C6.67575 17.8277 6.91067 18.3168 7.23839 18.7647C7.57357 19.1996 8.02395 19.5545 8.58954 19.8293C9.16259 20.0912 9.80747 20.1315 10.5242 19.9504L12.3213 19.4949C12.6069 19.4184 12.8193 19.2521 12.9584 18.9962C13.1105 18.7478 13.1482 18.4807 13.0717 18.1951C12.9952 17.9095 12.829 17.6972 12.573 17.558C12.3246 17.406 12.0575 17.3682 11.772 17.4447L9.91366 17.9167C9.71986 17.9686 9.53106 17.9372 9.34727 17.8224C9.16074 17.6975 9.00445 17.5426 8.87839 17.3577C8.7598 17.1599 8.67317 16.959 8.61851 16.7551C8.56111 16.5409 8.53569 16.3236 8.54222 16.1032C8.55623 15.8698 8.61413 15.6575 8.71594 15.4663C8.81501 15.2648 8.96007 15.133 9.15114 15.0709L12.6548 14.1321C12.9227 14.0712 13.0909 14.1683 13.1592 14.4233L14.1431 18.0953L14.1422 18.0955C14.6342 19.9315 16.2385 22.0598 19.2373 21.2562C22.5802 20.3605 22.5717 17.7101 22.1216 15.9953C22.1206 15.9884 22.1195 15.9816 22.1184 15.9747L21.4009 13.2972C21.349 13.1034 21.3301 12.8898 21.3441 12.6565C21.3683 12.4205 21.4313 12.2068 21.5331 12.0155C21.6321 11.8141 21.7786 11.6874 21.9724 11.6355L25.8671 10.5919C26.1527 10.5153 26.3664 10.3542 26.5083 10.1085C26.6576 9.84982 26.694 9.5777 26.6175 9.2921C26.541 9.0065 26.3747 8.79414 26.1188 8.655C25.8703 8.50293 25.6033 8.46516 25.3177 8.54168L21.4842 9.56888C20.773 9.77039 20.236 10.1329 19.8734 10.6564Z" fill="white"/>
</g>
<defs>
<clipPath id="clip0_550_17502">
<rect width="37" height="37" fill="white" transform="translate(0 0.5)"/>
</clipPath>
</defs>
</svg>
